# xmcd
#
# Track frame offsets: 
#        150
#        14539
#        30883
#        45071
#        61828
#        80409
#        95919
#        114676
#        131505
#        147990
#        163187
#        185761
#        198278
#        209446
#        229038
#        242648
#        256905
#        271181
#        283833
#        298772
#
# Disc length: 4142 seconds
#
# Revision: 1
# Processed by: cddbd v1.5.2PL0 Copyright (c) Steve Scherf et al.
# Submitted via: ExactAudioCopy v1.1
#
DISCID=22102c14
DTITLE=Various Artist - Complete Motown Singles Volume 12A - Disc 67
DYEAR=2013
DGENRE=R&B
TTITLE0=Gladys Knight and The Pips - Can You Give Me Love With A Guarant
TTITLE0=ee (mono)
TTITLE1=Gladys Knight and The Pips - If You Gonna Leave (Just Leave) (mo
TTITLE1=no)
TTITLE2=Gladys Knight and The Pips - Can You Give Me Love With A Guarant
TTITLE2=ee (stereo promo version)
TTITLE3=Franki Valli - Love Isn't Here (Like It Used To Be) (first pre
TTITLE3=ssing) (mono)
TTITLE4=Franki Valli - Poor Fool (first pressing) (mono)
TTITLE5=Franki Valli - Love Isn't Here Like It Used To Be) (second pre
TTITLE5=ssing) (mono)
TTITLE6=Franki Valli - Poor Fool (second pressing) (mono)
TTITLE7=Jr. Walker and The All Stars - Walk In The Night (mono)
TTITLE8=Jr. Walker and The All Stars - I Don't Want To Do Wrong (mono)
TTITLE9=Edwin Starr - Take Me Clear From Here (mono)
TTITLE10=Edwin Starr - Ball Of Confusion (That's What The World Is Tod
TTITLE10=ay) (mono)
TTITLE11=G.C. Cameron - I'm Gonna Get You (Part II) (mono)
TTITLE12=G.C. Cameron - I'm Gonna Get You (Part I) (mono)
TTITLE13=Gladys Knight and The Pips - Help Me Make It Through The Night 
TTITLE13=(mono)
TTITLE14=The Sisters Love - Mr. Fix It Man (mono)
TTITLE15=The Sisters Love - You've Got To Make The Choice (mono)
TTITLE16=R.Dean Taylor - Taos New Mexico (mono)
TTITLE17=R.Dean Taylor - Shadow (mono)
TTITLE18=The Commodores - The Zoo (The Human Zoo) (mono)
TTITLE19=The Commodores - I'm Looking For Love (mono)
EXTD=
EXTT0=
EXTT1=
EXTT2=
EXTT3=
EXTT4=
EXTT5=
EXTT6=
EXTT7=
EXTT8=
EXTT9=
EXTT10=
EXTT11=
EXTT12=
EXTT13=
EXTT14=
EXTT15=
EXTT16=
EXTT17=
EXTT18=
EXTT19=
PLAYORDER=
